<svg id="Layer_2" data-name="Layer 2" xmlns="http://www.w3.org/2000/svg" viewBox="0 0 494.87 432.29"><defs><style>.cls-1{fill:#00612e;}.cls-2{fill:#009136;}.cls-3{fill:#ff5757;}.cls-4,.cls-6{fill:#fff;}.cls-5{fill:none;stroke:#fff;stroke-miterlimit:10;stroke-width:2px;}.cls-6{font-size:38.16px;font-family:ArialMT, Arial;}</style></defs><path d="M15.62,297.93s34.2,134.89,276.43,42.28c0,0,197.11-82.17,133.94-199.49,0,0,76.94,44.65.95,136.32,0,0-103.54,141.06-329.15,116.36C97.79,393.4,9.45,383.9,15.62,297.93Z" transform="translate(-2.56 -33.86)"/><polygon class="cls-1" points="337.62 44.65 307.22 92.78 316.72 105.12 300.89 105.12 294.24 116.84 344.9 165.76 307.22 161.17 352.18 228.3 318.62 223.86 360.73 258.38 384.8 238.43 372.13 225.76 392.71 228.3 403.8 218.16 366.75 174.78 402.21 176.69 347.12 123.49 382.26 125.39 337.62 44.65"/><path class="cls-2" d="M250.25,33.86,188.51,137.4l30.87-3.8L161,198.19h34.2l-39.9,62.7h38l-62.7,64.59,44.65-6.65-25.65,46.55s112.09-.95,177.64-49.4l-16.15-14.25L357.6,297l-61.75-45.59,42.75,2.85-41.8-64.6,30.4,1.9-58.9-55.09,37.05-.95Z" transform="translate(-2.56 -33.86)"/><path class="cls-1" d="M161.91,91.8l21.85,39-6.65,17.1h14.25l4.12,4.11L146.4,204.21h39.26l-40.53,60.48L180,268.17l-65.23,63.65,51-5.7-22.48,39.26S102.07,367.6,84,356.51L96.68,335.3,60,337.2l56.68-52.88-37-.63L123,230.81l-39.27.95,50.35-52.25-27.55.32Z" transform="translate(-2.56 -33.86)"/><path class="cls-3" d="M7.55,302.21S-23.8,450.5,240.76,396.3c0,0,224.65-47.54,234.15-187.18,0,0,56.52,75.52-9.5,156.26C412.22,433.3,141,492.19,66.45,454.2,66.45,454.2-18.57,420.47,7.55,302.21Z" transform="translate(-2.56 -33.86)"/><path class="cls-4" d="M74.45,450.76c1.18-9.42,2.7-18.89,4.61-28.19.74-3.68,3.53-16.32,4.1-16.12l.29.1c1.16.4,5.93,1.5,5.79,2.28-.32,1.84-1.11,3.6-1.5,5.36-.1.6-.15.9-.26,1.5-.38,2.2-1.63,7.05-2.43,12.06,0,.14-.16.48-.24,1-.16,1-.29,2.45-.34,2.73a38.27,38.27,0,0,0-1.86,9.38c-.14,2.57-1.54,9.67-.24,9.93.28.06,4.51.58,5.13.68-.2,0,2.89.1,2.84.94-.15,2.3-.22,3.45-.32,5.72,0,.76-9.76-.69-10-.75-.92-.21-1.69-.61-2.62-.86-.76-.21-1.43-.19-2.14-.42-.94-.3-1.28-.51-1.26-1.37C74.14,453.14,74.24,452.35,74.45,450.76Z" transform="translate(-2.56 -33.86)"/><path class="cls-4" d="M100.43,415.74c0-.08.64-5.39,2-5.29h.1c.1,0,.4.17.5.18l1.37.17c1.48.17,3-.19,4.28-.05l.9,0c1.07.63.65,5.6.62,6-1,12.38-1.62,24.79-1.55,37.21,0,.35.29,3.84.43,4.19s0,.33,0,.55c0,1.72-6.06,1.22-8.21,1.09l-.89-.05c-1-.68-1-.75-1-2.83,0-.31,0-.46,0-.77-.32-2.6,0-5.25-.2-8C99.09,437.3,99.64,426.59,100.43,415.74Z" transform="translate(-2.56 -33.86)"/><path class="cls-4" d="M129.91,417.83c-3.92,0-7.53.53-11.14.47a6.79,6.79,0,0,1-1.48-.1l-.23-.15c0-.07-.07-.94,0-1.23.11-1.95.57-4.56,1-5.11,3.11-3.56,25.54-2,37.65-1.26,0,.21-.38.86-.13,5.57-.5.81-10.36,1.06-14.25,1.17,0,.29,0,.43,0,.72,1.4,4.42,1.27,9,1.74,13.53.73.69,1.46,6.66,1.59,8.57l.05.85c1,4.5,1.75,14.69,1.89,15.85s.39,3.18-.21,3.21c-4.41.52-6.62.77-11,1.23-.73.08-1.37-.24-1.39-.51a226.32,226.32,0,0,1-3.17-23.24C130.68,430,129.89,419,129.91,417.83Z" transform="translate(-2.56 -33.86)"/><path class="cls-4" d="M177.5,415.82c-3.82.27-7.43,1-11.28,1.22a7.87,7.87,0,0,1-1.6,0l-.27-.12c0-.07-.2-.92-.22-1.21-.14-1.91,0-4.51.43-5.08,2.39-3.48,23.74-3.29,34.87-3.22a23.22,23.22,0,0,0,.48,5.45c-.31.81-8.4,1.43-11.85,1.71,0,.28.05.42.08.7,1.76,4.25,2.16,8.77,3.07,13.16.72.64,2,6.47,2.34,8.34l.15.84c1.38,4.37,3.12,14.38,3.36,15.52s.69,3.13.19,3.17c-3.63.66-5.53,1-9.45,1.65-.66.13-1.27-.16-1.33-.42-2.55-8.77-3.68-13.37-5.7-22.64C179.74,427.71,177.62,417,177.5,415.82Z" transform="translate(-2.56 -33.86)"/><path class="cls-4" d="M216.76,455.3c-.88.11-1.48-3.15-1.82-4.63-3-14-6.26-27.91-9.14-41.93,0-.64-.13-2.1-.13-2.1l.93-.17c2.61-.22,5.46-.65,7.05-.17.46,3.25.66,4.89,1.08,8.17.28,2.37.72,4.79,1.1,7.23.55,3.63,1.14,7.33,1.9,11,0,.07,1.62,6.32,1.86,8.13.16,1.1.25,1.66.42,2.76.06.34.73,3.55.88,4,0,.2,0,.42.05.69s.22.74.61.69c1.42-.16,2.71-.93,4.2-1.1,1.1-.12,1.47.54,1.65,1.43.13.61.1,1.24.15,1.51,0,.07.4,1.14.43,1.27l.1.47a3.14,3.14,0,0,1,.08,1.16,13.08,13.08,0,0,1-3.93,1l-.72.08c-.25,0-3.26,0-3.59,0h-.16C219,454.91,217.64,455.2,216.76,455.3Z" transform="translate(-2.56 -33.86)"/><path class="cls-4" d="M232.28,444.34c-.69-2.39-1-3.6-1.71-6-.44-2.17-.72-4.37-1.14-6.56-.31-1.62-.76-3.16-1.05-4.71-1.93-7.64-2.84-11.48-4.59-18.94a17.78,17.78,0,0,0-.59-2.6l-.08-.05a1.27,1.27,0,0,1-.4-.64c-.07-.41,1.66-.54,13.52-2.59l1-.21c.34-.07,1.41-.25,1.66-.28s.41.21.51.33c.19.91.29,1.37.49,2.29.12.56.31,1.76.43,2.32s-.65.72-1,.86c-2.44.49-3.66.73-6.11,1.18-.35.07-2.16.54-2.57.69,0,.22.07.33.11.55.33,1.75,1.39,4.48,1.79,6.23.52,2.23,1.11,4.49,1.54,6.63,1.17-.19,2.25-.44,3.49-.64.87-.15,3.41-1,3.74.56a1,1,0,0,1,0,.67c.3,1.41.46,2.12.77,3.53.08.36-1.06.88-1.32,1s-1.52.38-1.8.5l-.22,0c-.67.1-1.29.05-2,.15a5.56,5.56,0,0,0-1.46.36l-.19.18v.07c.09.43.46,1.11.55,1.54,1.05,3.95,3.59,10.93,4.58,14.9l.31,0c2-.24,3.93-.83,6-1.09l2.23-.29a8,8,0,0,1,1.1,0c.25,0,.9.1,1,.38a5.53,5.53,0,0,1,.22,2.1c.18.41.92,2.36,1,2.85,0,.14.06.21.09.35s.06.52-.24.6c-.6.16-4.38.45-5.14.61-3.19.43-6.28,1.65-9.44,2l-1.1.11c-.08,0-.18-.05-.25-.05-.84-.12-1.3-.23-1.61-1C234.1,451,232.61,445.51,232.28,444.34Z" transform="translate(-2.56 -33.86)"/><path class="cls-4" d="M273.21,416.36l-.23-.82c-.47-1.65-3.12-9.39-3.66-11a15.94,15.94,0,0,1-.71-1.45c-.06-.22-.5-1.26-.9-1.37-.75.23-3.84,1-4.46,1.17l-.95.27c-.47-.1-1.29-2.87-1.5-3.65-.31-1.16-.46-1.73-.78-2.88l.22-.29,1.07-.31c1.8-.53,3.59-.86,5.32-1.4,3.78-1.21,5.06-2.26,8.77-3.59l2-.72a1.05,1.05,0,0,1,1,.5c.47,1.69,1.13,3.27,1.65,4.91a2,2,0,0,1,.21.88c-1.7.71-1.78,1.14-3.32,2.17-.13,0-.24.16-.37.21-.38.21-2.34.81-2.46,1.16a28.27,28.27,0,0,1,1.91,4.66c.67,1.72,1.56,3.46,2.07,5.18.25.58,1.49,5,1.62,5.41,2.58,8.1,6.38,15.91,9,23.82.46,1.41,1.27,3.11-.34,3.9-.64.27-1.49.91-1.71,1s-1,.36-1.32.44a8.06,8.06,0,0,1-.92.17l-.59-.31C280,435.12,276.54,425.75,273.21,416.36Z" transform="translate(-2.56 -33.86)"/><path class="cls-4" d="M307.74,419.84c-.29-.24-1.43-1.45-1.68-1.61-1.21-1.17-4.18-5.58-4.62-5.39l-.2-.09c-.87.38-2.25,1.17-2.63,1l-.08.21c.26.75.66,1.45,1,2.28s.41,1.65.7,2.48c.15.19,1,2.43,1.09,2.65.34,1,.45,2,.87,2.93,2.28,4.89,3.47,7.33,6,12.06l-.13.38c-2.87.94-4.06,1.41-6.64,2.29-.6,1.07-2.77-5.45-3.47-7.47-4.06-11.66-9-23-12.87-34.72-.16-.51-2.83-7-2.07-7.75.26-.1.54-.13.74-.21,2.12-.85,4-2.47,6.11-3.4,6.15-2.64,13-4.85,18.46,5,1.12,1.29,1.41,7.71,2,7.81-.36,2.21-.54,3.31-.89,5.53.5,1.19-1.95,4.13-1.62,4.7,0,.34,3.52,3.06,5.07,4.41,2.25,2,4.89,3.82,6.81,6.24,2.67,2.6,4,3.9,6.88,6.48.8.88,2.52,1.81,2.78,2.34.37.76-6.8,3.59-8.67,4.8-.71.23-1.91-.64-2.38-1.68C313.75,426.66,311.64,424.38,307.74,419.84ZM295.8,408.05l.19.09c1.77-1.08,2.58-1.63,4.48-2.79,2.14-1.3,1.95-6.89,1.34-8.41-1.06-2.67-4.59-8.39-7.34-7.14-1.89.85-2.84,1.27-4.75,2.08l-.12.3c.29.84.72,2.7,1.41,4.73C292.15,400.24,294.63,404.6,295.8,408.05Z" transform="translate(-2.56 -33.86)"/><path class="cls-4" d="M331.76,417.86c-1.6-2.61-2.38-3.92-3.94-6.53-1.16-2.4-2.09-4.88-3.23-7.26-.84-1.76-1.85-3.35-2.64-5-4.61-8-6.83-11.81-11.09-18.71a11.84,11.84,0,0,0-1.45-2.38l-.12,0a1.19,1.19,0,0,1-.7-.47c-.2-.38.9-.77,19.53-8.71l1.63-.73c.54-.24,2.22-1,2.66-1.12a1.3,1.3,0,0,1,.89.07c.53.8.79,1.22,1.32,2.05.31.51.88,1.65,1.2,2.18s-.9,1.07-1.42,1.39c-3.87,1.73-5.77,2.57-9.47,4.19-.53.23-3.18,1.56-3.76,1.9l.29.54c.92,1.67,3.15,4.13,4.18,5.86,1.31,2.21,2.74,4.49,3.89,6.73,1.75-.72,3.38-1.49,5.29-2.29,1.35-.56,5.25-2.67,6.11-1.07a.83.83,0,0,1,.13.78c.8,1.5,1.2,2.26,2,3.79.21.39-1.5,1.51-1.91,1.72s-2.34,1.13-2.75,1.39l-.35.14c-1,.41-2,.62-3,1a12,12,0,0,0-2.18,1.05l-.25.29,0,.08c.23.46.95,1.1,1.19,1.56,2.52,4.22,8,11.61,10.48,16.1l.47-.17c3.09-1.06,6-2.56,9.29-3.73l3.53-1.26a18,18,0,0,1,1.79-.46c.41,0,1.47-.24,1.65.09a5.53,5.53,0,0,1,.77,2.56,37.93,37.93,0,0,1,2.29,3.18l.22.41a.53.53,0,0,1-.26.86c-1,.46-6.95,2.26-8.13,2.75-5,1.75-9.56,4.41-14.28,5.9l-1.65.53c-.11,0-.27,0-.39,0-1.29.14-2,.17-2.64-.67C336.05,425.25,332.52,419.14,331.76,417.86Z" transform="translate(-2.56 -33.86)"/><path class="cls-4" d="M370.3,403.87l-4.59-7c-1.37-2.58-2.49-5.24-3.85-7.75-1-1.87-2.2-3.53-3.15-5.27A223.15,223.15,0,0,0,345.25,365a10.57,10.57,0,0,0-1.81-2.27h-.15a1.37,1.37,0,0,1-.86-.4c-.25-.36,2.84-1.49,21.81-10.48l1.64-.82c.55-.27,2.22-1.06,2.64-1.24a1.45,1.45,0,0,1,.91,0c.58.77.87,1.17,1.45,2,.35.49,1,1.61,1.34,2.13s-.83,1.12-1.33,1.46c-3.78,1.91-5.72,2.87-9.64,4.77-.56.27-3.42,1.81-4.05,2.21.13.21.2.31.34.52,1.08,1.67,3.63,4.08,4.82,5.84,1.52,2.24,3.15,4.58,4.47,6.92,1.85-.86,3.52-1.74,5.45-2.66,1.35-.65,5.14-3,6.09-1.35a1,1,0,0,1,.18.83c.88,1.57,1.32,2.36,2.2,4,.23.41-1.39,1.67-1.78,1.9s-2.28,1.29-2.69,1.58l-.34.16c-1,.48-2,.74-3.07,1.22a12,12,0,0,0-2.22,1.22l-.26.32,0,.08c.27.49,1.07,1.15,1.33,1.65,2.85,4.46,8.89,12.36,11.61,17.23l.47-.2c3-1.26,5.78-3,8.78-4.34,1.29-.58,1.93-.88,3.19-1.46a15.41,15.41,0,0,1,1.6-.54c.37-.06,1.32-.29,1.5.07a7.14,7.14,0,0,1,.91,2.77c.38.48,2,2.82,2.31,3.43l.23.45c.18.35.25.7-.16.95-.8.5-6.16,2.65-7.24,3.22-4.58,2.06-8.93,5.13-13.75,6.94l-1.7.63c-.12,0-.28,0-.4.06-1.35.19-2.11.25-2.84-.66C375.25,411.87,371.18,405.25,370.3,403.87Z" transform="translate(-2.56 -33.86)"/><path class="cls-4" d="M404.44,391c-.09-.18-.18-.36-.13-.5,2.59-1.35,4.81-2,7-3.25,3.34-1.93,7.77-7.42,5.62-12.17-2.06-4.55-6.41-6.59-10.13-9-2-.65-3.1-1-5.24-1.58a50.6,50.6,0,0,1-10-1.56c-3.23-.71-5.55-3.42-7.43-5.6l-.31-.5c-1.65-2.67-3.24-6.36-3-9.31.45-5.78,10.24-11.3,16.11-14,2.32-1.07,2.81.94,4.61,2.88.13.18.72,1,.63,1.35l-.2.32c-1.29.88-2.47,1.73-3.91,2.65s-3.16,1.7-4.74,2.64c-3.86,2.29-3.57,5.59-2.2,8,2.85,5,9.66,5.72,14.24,6.24,8.81,1,12.94,4,16.91,13.17a28.56,28.56,0,0,1,2.77,9.39c1,7-6.14,13.95-12.23,17.26a10.76,10.76,0,0,1-3.59,1.55C408.62,399.06,404.81,391.73,404.44,391Z" transform="translate(-2.56 -33.86)"/><circle class="cls-5" cx="237.76" cy="251.08" r="25.65"/><text class="cls-6" transform="translate(223.98 263.67)">R</text></svg>