<svg xmlns="http://www.w3.org/2000/svg" xmlns:xlink="http://www.w3.org/1999/xlink" width="256" height="256" viewBox="0 0 256 256"><defs><filter id="a" x="0" y="0" width="256" height="256" filterUnits="userSpaceOnUse"><feOffset dx="5" dy="5" input="SourceAlpha"/><feGaussianBlur stdDeviation="3.5" result="b"/><feFlood flood-opacity="0.4"/><feComposite operator="in" in2="b"/><feComposite in="SourceGraphic"/></filter><filter id="c"><feOffset dx="5" dy="5" input="SourceAlpha"/><feGaussianBlur stdDeviation="3.5" result="d"/><feFlood flood-opacity="0.161" result="e"/><feComposite operator="out" in="SourceGraphic" in2="d"/><feComposite operator="in" in="e"/><feComposite operator="in" in2="SourceGraphic"/></filter><filter id="f"><feOffset dx="1" dy="1" input="SourceAlpha"/><feGaussianBlur stdDeviation="0.5" result="g"/><feFlood flood-opacity="0.161" result="h"/><feComposite operator="out" in="SourceGraphic" in2="g"/><feComposite operator="in" in="h"/><feComposite operator="in" in2="SourceGraphic"/></filter></defs><g transform="translate(-258.5 -1623.5)"><g transform="matrix(1, 0, 0, 1, 258.5, 1623.5)" filter="url(#a)"><rect width="235" height="235" rx="12" transform="translate(5.5 5.5)" fill="#ff5757"/></g><g transform="translate(-118 211)"><g data-type="innerShadowGroup"><path d="M7.608,55.78a25.384,25.384,0,0,1,5.736-16.241,24.9,24.9,0,0,1,14.5-9.087A31.617,31.617,0,0,1,58.779,5.64a30.7,30.7,0,0,1,19.463,6.767A30.887,30.887,0,0,1,89.391,29.743h1.74a25.444,25.444,0,0,1,18.561,7.6,24.968,24.968,0,0,1,7.669,18.367,25.4,25.4,0,0,1-2.385,10.956,26.37,26.37,0,0,1-6.638,8.829v.193a16.169,16.169,0,0,1-3.609,10.247,15.672,15.672,0,0,1-9.023,5.736,20.1,20.1,0,0,1-16.369,15.338,11.268,11.268,0,0,1-8.443,18.625,10.62,10.62,0,0,1-7.927-3.351,10.947,10.947,0,0,1-3.287-7.991,10.515,10.515,0,0,1,.644-3.673h-.644A13.865,13.865,0,0,1,45.954,96.9,12.489,12.489,0,0,1,47.887,90a16.007,16.007,0,0,1-7.218-8.056H32.42v-.064A25.95,25.95,0,0,1,14.826,73.7,24.865,24.865,0,0,1,7.608,55.78Zm9.023-1.611a18.483,18.483,0,0,0,18.5,18.561,18.117,18.117,0,0,0,8.829-2.191,19.748,19.748,0,0,0,6.7,11.987,19.12,19.12,0,0,0,13.018,4.769,19.511,19.511,0,0,0,14.307-5.929,12.426,12.426,0,0,0,9.925,4.576,13.2,13.2,0,0,0,13.276-13.276,18.542,18.542,0,0,0,6.122-6.7,18.174,18.174,0,0,0,2.256-8.829,17.43,17.43,0,0,0-5.478-13.018,18.347,18.347,0,0,0-13.212-5.349,18.142,18.142,0,0,0-9.86,2.836,21.311,21.311,0,0,0,.516-5.091A21.42,21.42,0,0,0,74.89,20.656a21.981,21.981,0,0,0-16.047-6.509A22.124,22.124,0,0,0,43.183,20.4a21.269,21.269,0,0,0-6.9,15.274h-1.1a17.962,17.962,0,0,0-13.083,5.414A17.774,17.774,0,0,0,16.631,54.168Z" transform="translate(438.016 1446.36)" fill="#e6e6e6"/><g transform="matrix(1, 0, 0, 1, 376.5, 1412.5)" filter="url(#c)"><path d="M7.608,55.78a25.384,25.384,0,0,1,5.736-16.241,24.9,24.9,0,0,1,14.5-9.087A31.617,31.617,0,0,1,58.779,5.64a30.7,30.7,0,0,1,19.463,6.767A30.887,30.887,0,0,1,89.391,29.743h1.74a25.444,25.444,0,0,1,18.561,7.6,24.968,24.968,0,0,1,7.669,18.367,25.4,25.4,0,0,1-2.385,10.956,26.37,26.37,0,0,1-6.638,8.829v.193a16.169,16.169,0,0,1-3.609,10.247,15.672,15.672,0,0,1-9.023,5.736,20.1,20.1,0,0,1-16.369,15.338,11.268,11.268,0,0,1-8.443,18.625,10.62,10.62,0,0,1-7.927-3.351,10.947,10.947,0,0,1-3.287-7.991,10.515,10.515,0,0,1,.644-3.673h-.644A13.865,13.865,0,0,1,45.954,96.9,12.489,12.489,0,0,1,47.887,90a16.007,16.007,0,0,1-7.218-8.056H32.42v-.064A25.95,25.95,0,0,1,14.826,73.7,24.865,24.865,0,0,1,7.608,55.78Zm9.023-1.611a18.483,18.483,0,0,0,18.5,18.561,18.117,18.117,0,0,0,8.829-2.191,19.748,19.748,0,0,0,6.7,11.987,19.12,19.12,0,0,0,13.018,4.769,19.511,19.511,0,0,0,14.307-5.929,12.426,12.426,0,0,0,9.925,4.576,13.2,13.2,0,0,0,13.276-13.276,18.542,18.542,0,0,0,6.122-6.7,18.174,18.174,0,0,0,2.256-8.829,17.43,17.43,0,0,0-5.478-13.018,18.347,18.347,0,0,0-13.212-5.349,18.142,18.142,0,0,0-9.86,2.836,21.311,21.311,0,0,0,.516-5.091A21.42,21.42,0,0,0,74.89,20.656a21.981,21.981,0,0,0-16.047-6.509A22.124,22.124,0,0,0,43.183,20.4a21.269,21.269,0,0,0-6.9,15.274h-1.1a17.962,17.962,0,0,0-13.083,5.414A17.774,17.774,0,0,0,16.631,54.168Z" transform="translate(61.52 33.86)" fill="#fff"/></g></g><g data-type="innerShadowGroup"><text transform="translate(423 1612)" fill="#e6e6e6" font-size="24" font-family="FreeSansBoldOblique, FreeSans BoldOblique"><tspan x="0" y="0">FRAGRANCE</tspan></text><g transform="matrix(1, 0, 0, 1, 376.5, 1412.5)" filter="url(#f)"><text transform="translate(46.5 199.5)" fill="#fff" font-size="24" font-family="FreeSansBoldOblique, FreeSans BoldOblique"><tspan x="0" y="0">FRAGRANCE</tspan></text></g></g></g></g></svg>