<svg xmlns="http://www.w3.org/2000/svg" width="1240.286" height="918.896" viewBox="0 0 1240.286 918.896"><g transform="translate(174.688 -15.16) rotate(16)"><path d="M-59.07,633.787C-28.9,572.689,8.611,505.321,74.414,487.616c19.935-5.364,40.871-5.519,61.514-5.077,108.887,2.31,222.857,19.158,322.926-23.831C591.737,401.639,673.7,249.087,814.978,218.167c30.334-6.626,61.673-7.062,92.1-13.129a254.165,254.165,0,0,0,118-58.539" transform="translate(61.359 -36.633)" fill="none" stroke="#fdf100" stroke-miterlimit="10" stroke-width="3"/><path d="M1025.067,136.86c-34.011,28.343-74.552,50.264-117.078,60.572-29.583,7.179-60.135,8.893-89.692,16.5C769.481,226.488,727.514,253.4,687.415,285.1c-12.99,10.271-25.794,21.042-38.572,31.813-14.635,12.336-29.179,24.661-43.814,36.869-27.88,23.277-56.176,46.129-86.515,65.239a374.436,374.436,0,0,1-57.24,29.865q-12.879,5.29-26.013,9.483a421.916,421.916,0,0,1-74.169,16.348c-72.279,9.579-148.013,3.438-220.968,4.369-20.393.255-41.009,1.112-60.667,6.971C51.738,494.3,29,511.263,9.648,532.715c-25.911,28.737-45.8,65.457-63.408,100.218" transform="translate(58.875 -32.124)" fill="none" stroke="#fdf100" stroke-miterlimit="10" stroke-width="3"/><path d="M1025.13,127.16c-34.745,27.268-74.658,50.689-116.1,62.626-28.737,8.275-58.427,11.282-87.276,19.887-47.624,14.177-88.979,41.813-129.136,73.44-13.022,10.255-25.938,20.909-38.9,31.313-14.864,11.921-29.663,23.474-44.532,34.948-28.317,21.867-57.038,43.425-87.7,61.428a407.634,407.634,0,0,1-57.677,28.264c-8.616,3.385-17.317,6.434-26.076,9.217a480.362,480.362,0,0,1-73.972,17.029c-71.971,10.9-147.252,6.9-219.318,10.335-20.132.947-40.445,2.517-59.779,8.866-27.279,8.909-49.758,26.151-69.028,47.656-25.848,28.838-45.969,65.3-63.93,99.936" transform="translate(56.316 -27.586)" fill="none" stroke="#fdf100" stroke-miterlimit="10" stroke-width="3"/><path d="M1025.156,117.46c-35.48,26.193-74.754,51.088-115.146,64.675-27.9,9.377-56.745,13.677-84.892,23.266-46.427,15.8-87.175,44.17-127.391,75.685-13.054,10.228-26.076,20.755-39.226,30.813-15.082,11.495-30.142,22.282-45.234,32.995-28.737,20.462-57.9,40.727-88.872,57.623a450.581,450.581,0,0,1-58.092,26.71c-8.653,3.246-17.381,6.205-26.167,8.951a557.7,557.7,0,0,1-73.775,17.764c-71.646,12.192-146.475,10.3-217.658,16.221-19.882,1.639-39.87,3.922-58.917,10.76-26.832,9.579-49.061,27.1-68.24,48.651C-4.227,560.567-24.593,596.765-42.9,631.207" transform="translate(53.794 -23.048)" fill="none" stroke="#fdf100" stroke-miterlimit="10" stroke-width="3"/><path d="M1025.192,107.76c-36.214,25.118-74.855,51.5-114.2,66.724-27.045,10.468-55.064,16.072-82.486,26.646-45.235,17.418-85.371,46.512-125.651,77.942-13.091,10.207-26.22,20.638-39.556,30.334-15.3,11.08-30.621,21.1-45.958,31.089-29.19,19.052-58.768,38.024-90.075,53.818a504.307,504.307,0,0,1-58.48,25.1c-8.685,3.1-17.439,5.971-26.247,8.69a665.8,665.8,0,0,1-73.573,18.472c-71.311,13.5-145.7,13.735-216,22.144-19.626,2.331-39.3,5.322-58.044,12.655-26.39,10.234-48.364,28.04-67.463,49.651-25.709,29.126-46.3,65.063-64.962,99.34" transform="translate(51.268 -18.51)" fill="none" stroke="#fdf100" stroke-miterlimit="10" stroke-width="3"/><path d="M1025.241,98.06c-36.949,24.043-74.946,51.892-113.246,68.778-26.193,11.548-53.382,18.466-80.086,30.02C787.871,215.9,748.357,245.721,708,277.056c-13.123,10.191-26.364,20.5-39.881,29.8-15.529,10.643-31.111,19.909-46.682,29.163-29.621,17.647-59.6,35.326-91.257,50.024a577.379,577.379,0,0,1-58.89,23.506c-8.722,2.964-17.5,5.737-26.327,8.424-24.352,7.424-48.736,14.081-73.376,19.158-71.013,14.832-144.937,17.189-214.337,28.093-19.376,3.023-38.731,6.732-57.182,14.55-25.943,10.9-47.661,28.987-66.676,50.652C7.752,559.7-13.083,595.352-32.06,629.47" transform="translate(48.723 -13.972)" fill="none" stroke="#fdf100" stroke-miterlimit="10" stroke-width="3"/><path d="M1025.246,88.36c-37.683,22.968-75.036,52.275-112.288,70.827-25.347,12.623-51.706,20.85-77.7,33.4C792.411,213.244,753.5,243.8,713.1,275.04c-13.155,10.17-26.507,20.377-40.211,29.312-15.747,10.244-31.59,18.722-47.4,27.236C595.428,347.83,565,364.216,533.047,377.8c-19.1,8.169-38.849,15.332-59.3,21.92-8.76,2.815-17.562,5.5-26.406,8.158-24.389,7.333-48.672,14.369-73.179,19.887-70.672,16.119-144.144,20.6-212.661,33.99-19.121,3.725-38.157,8.137-56.309,16.444-25.5,11.569-46.969,29.94-65.893,51.674-25.581,29.4-46.65,64.808-65.989,98.755" transform="translate(46.211 -9.434)" fill="none" stroke="#fdf100" stroke-miterlimit="10" stroke-width="3"/><path d="M1025.269,78.66c-38.417,21.893-75.137,52.642-111.341,72.907-24.48,13.687-50.024,23.24-75.286,36.773-41.653,22.282-79.959,53.563-120.42,84.711-13.187,10.148-26.651,20.223-40.535,28.812-15.965,9.829-32.074,17.562-48.114,25.31-30.5,14.837-61.349,29.929-93.63,42.4-19.275,7.509-39.178,14.076-59.715,20.329-8.791,2.661-17.631,5.269-26.486,7.892-24.411,7.222-48.6,14.587-72.976,20.568-70.38,17.429-143.4,24.027-211.022,39.913-18.865,4.417-37.587,9.579-55.457,18.349-25.049,12.24-46.267,30.866-65.106,52.648C19.637,558.811-1.65,593.956-21.34,627.727" transform="translate(43.708 -4.896)" fill="none" stroke="#fdf100" stroke-miterlimit="10" stroke-width="3"/><path d="M1025.271,69c-39.152,20.824-75.228,53.01-110.388,74.935-23.65,14.746-48.342,25.635-72.907,40.152-40.445,23.9-78.16,55.91-118.674,86.967-13.219,10.111-26.795,20.111-40.865,28.311-16.194,9.409-32.553,16.348-48.827,23.389-30.935,13.427-62.211,27.226-94.812,38.593-19.461,6.844-39.514,12.815-60.135,18.738-8.829,2.533-17.695,5.034-26.566,7.631-24.453,7.152-48.539,14.874-72.78,21.287-70.06,18.743-142.622,27.46-209.367,45.852-18.626,5.1-37.018,10.941-54.574,20.222C90.769,487.967,69.8,506.9,51.053,528.726,25.6,558.4,4.063,593.279-16,626.89" transform="translate(41.21 -0.377)" fill="none" stroke="#fdf100" stroke-miterlimit="10" stroke-width="3"/><path d="M1025.347,59.25C985.434,79,950.012,112.605,915.906,136.234c-22.8,15.8-46.666,28.029-70.481,43.532-39.264,25.544-76.351,58.262-116.934,89.229-13.251,10.111-26.933,19.972-41.2,27.811-16.412,8.988-33.032,15.156-49.54,21.457-31.4,12.022-63.078,24.528-96,34.788-19.637,6.178-39.844,11.559-60.545,17.147-8.861,2.395-17.753,4.79-26.64,7.365-24.48,7.067-48.481,15.14-72.583,22.016-69.746,20.052-141.861,30.866-207.706,51.775-18.36,5.79-36.427,12.378-53.712,22.122C96.437,487.083,75.7,506.241,57.036,528.124c-25.385,29.8-47.161,64.425-67.586,97.866" transform="translate(38.66 4.185)" fill="none" stroke="#fdf100" stroke-miterlimit="10" stroke-width="3"/><path d="M1025.357,49.55c-40.626,18.674-75.435,53.691-108.488,79.038C894.905,145.426,871.884,159,848.788,175.5c-38.071,27.141-74.546,60.6-115.188,91.48-13.3,10.085-27.077,19.839-41.509,27.311-16.636,8.568-33.527,13.969-50.263,19.531-31.8,10.611-63.935,21.819-97.18,30.983-19.813,5.519-40.173,10.3-60.955,15.561-8.9,2.251-17.817,4.566-26.726,7.1-24.517,6.971-48.428,15.4-72.375,22.724-69.443,21.356-141.105,34.32-206.067,57.7-18.094,6.482-35.852,13.783-52.839,24.017C102,486.169,81.515,505.615,62.931,527.546c-25.321,29.935-47.337,64.3-68.091,97.573" transform="translate(36.139 8.723)" fill="none" stroke="#fdf100" stroke-miterlimit="10" stroke-width="3"/><path d="M1025.382,39.85c-41.355,17.6-75.568,54.015-107.536,81.087-21.127,17.881-43.3,32.808-65.675,50.29-36.879,28.737-72.742,62.95-113.448,93.737-13.3,10.063-27.221,19.69-41.85,26.811-16.859,8.153-34,12.772-50.977,17.6-32.239,9.207-64.8,19.126-98.366,27.178-19.988,4.853-40.5,9.047-61.37,13.969-8.93,2.129-17.876,4.332-26.8,6.833-24.549,6.886-48.348,15.672-72.184,23.416-69.108,22.67-140.317,37.784-204.391,63.626-17.854,7.174-35.288,15.188-51.977,25.911-23.24,14.933-43.478,34.66-61.966,56.644-25.257,30.1-47.507,64.185-68.613,97.3" transform="translate(33.617 13.261)" fill="none" stroke="#fdf100" stroke-miterlimit="10" stroke-width="3"/><path d="M1025.413,30.15c-42.095,16.524-75.669,54.335-106.589,83.141-20.292,18.908-41.621,35.2-63.275,53.664-35.655,30.382-70.938,65.3-111.7,95.993-13.352,10.047-27.364,19.579-42.174,26.311-17.083,7.738-34.485,11.6-51.7,15.678-32.675,7.8-65.659,16.428-99.553,23.373-20.164,4.188-40.833,7.786-61.78,12.378-8.967,1.969-17.945,4.1-26.88,6.572-24.586,6.8-48.3,15.949-71.987,24.139-68.794,23.98-139.551,41.185-202.757,69.549-17.594,7.865-34.713,16.593-51.088,27.806-22.793,15.593-42.781,35.6-61.2,57.645C49.561,556.616,27.077,590.446,5.62,623.382" transform="translate(31.095 17.798)" fill="none" stroke="#fdf100" stroke-miterlimit="10" stroke-width="3"/><path d="M1025.434,20.45c-42.829,15.433-75.8,54.643-105.636,85.19-19.467,19.935-39.913,37.593-60.87,57.043-34.49,32-69.14,67.65-109.962,98.249-13.384,10.026-27.508,19.446-42.5,25.81-17.3,7.317-34.964,10.409-52.408,13.751-33.117,6.386-66.521,13.73-100.74,19.568-20.34,3.528-41.163,6.524-62.189,10.787-9.01,1.825-18.009,3.869-26.965,6.306-24.613,6.705-48.215,16.2-71.785,24.852C323.916,387.3,253.6,406.625,191.3,437.48c-17.343,8.557-34.171,17.961-50.242,29.7-22.351,16.21-42.084,36.549-60.4,58.645C55.532,556.181,32.819,589.739,11,622.516" transform="translate(28.578 22.336)" fill="none" stroke="#fdf100" stroke-miterlimit="10" stroke-width="3"/><path d="M1025.484,10.75C981.921,25.119,949.538,65.7,920.8,97.989c-18.626,20.957-38.258,39.987-58.47,60.423-33.3,33.623-67.33,70-108.217,100.506-13.416,10-27.646,19.312-42.829,25.315-17.53,6.918-35.448,9.217-53.132,11.82-33.527,4.992-67.383,11.032-101.921,15.763-20.515,2.863-41.509,5.269-62.6,9.2-9.047,1.682-18.094,3.629-27.04,6.04-24.65,6.615-48.151,16.46-71.588,25.544-68.16,26.609-138.013,48.05-199.42,81.422-17.088,9.254-33.6,19.366-49.369,31.595-21.936,16.875-41.387,37.5-59.6,59.64-25.065,30.493-48.018,63.786-70.172,96.4" transform="translate(26.038 26.874)" fill="none" stroke="#fdf100" stroke-miterlimit="10" stroke-width="3"/><path d="M1025.5,1.05c-44.3,13.3-76.1,55.245-103.736,89.293-17.838,21.973-36.576,42.371-56.07,63.8-32.1,35.24-65.526,72.375-106.477,102.768-13.443,9.984-27.785,19.158-43.154,24.81-17.748,6.477-35.932,8.03-53.845,9.9-33.984,3.582-68.246,8.328-103.108,11.953-20.691,2.2-41.829,4.013-63.014,7.61-9.079,1.543-18.131,3.4-27.141,5.774-24.666,6.524-48.071,16.731-71.369,26.257-67.841,27.907-137.241,51.477-197.76,87.324a378.336,378.336,0,0,0-48.507,33.49c-21.489,17.562-40.684,38.439-58.831,60.667-25.012,30.626-48.183,63.658-70.688,96.1" transform="translate(23.526 31.412)" fill="none" stroke="#fdf100" stroke-miterlimit="10" stroke-width="3"/><path d="M1025.54-8.65C980.508,3.569,949.285,46.893,922.746,82.7c-17.029,23-34.894,44.766-53.664,67.176-30.909,36.863-63.722,74.7-104.737,105.024-13.475,9.962-27.928,19.041-43.484,24.31-17.966,6.061-36.411,6.844-54.558,7.983C631.883,289.36,597.2,292.814,562,295.336c-20.819,1.522-42.137,2.735-63.392,6a272.339,272.339,0,0,0-27.2,5.508c-24.714,6.439-48.023,17-71.188,26.981-67.522,29.216-136.475,54.909-196.1,93.247a405.1,405.1,0,0,0-47.635,35.384C135.432,480.665,116.486,501.84,98.43,524.1c-24.927,30.765-48.353,63.53-71.21,95.791" transform="translate(20.99 35.95)" fill="none" stroke="#fdf100" stroke-miterlimit="10" stroke-width="3"/><path d="M1025.557-18.35C979.79-7.206,949.121,37.485,923.726,75.041c-16.242,24.017-33.218,47.161-51.269,70.56-29.69,38.46-61.918,77.042-102.991,107.275-13.506,9.941-28.072,18.913-43.808,23.809-18.195,5.646-36.9,5.657-55.277,6.045-34.857.766-69.97,2.927-105.476,4.342-21.047.873-42.494,1.5-63.86,4.428a243.364,243.364,0,0,0-27.279,5.247c-24.751,6.349-47.959,17.258-70.992,27.673-67.165,30.541-135.688,58.353-194.429,99.191a433.3,433.3,0,0,0-46.772,37.252c-20.6,18.866-39.29,40.333-57.262,62.642-24.863,30.946-48.523,63.408-71.731,95.535" transform="translate(18.483 40.488)" fill="none" stroke="#fdf100" stroke-miterlimit="10" stroke-width="3"/><path d="M1025.583-28C979.082-17.931,948.95,28.128,924.7,67.445c-15.433,25.012-31.536,49.55-48.864,73.934-28.524,40.1-60.135,79.395-101.251,109.531-13.544,9.925-28.205,18.78-44.138,23.309-18.413,5.226-37.374,4.47-55.995,4.119-35.288-.639-70.827.229-106.658.532-21.223.213-42.824.234-64.254,2.842a220.166,220.166,0,0,0-27.364,4.976c-24.778,6.258-47.9,17.524-70.779,28.4C338.5,346.9,270.459,376.838,212.6,420.167a463.911,463.911,0,0,0-45.9,39.168c-20.153,19.531-38.593,41.275-56.479,63.637-24.8,31.036-48.7,63.275-72.253,95.221" transform="translate(15.961 45.003)" fill="none" stroke="#fdf100" stroke-miterlimit="10" stroke-width="3"/><path d="M1025.6-37.75c-47.241,8.994-76.813,56.41-99.931,97.494-14.667,26.076-29.855,51.945-46.464,77.314C851.883,178.78,820.9,218.8,779.694,248.845c-13.576,9.9-28.354,18.626-44.463,22.809-18.626,4.79-37.859,3.284-56.713,2.193-35.73-2.044-71.694-2.469-107.844-3.268-21.4-.452-43.154-1.022-64.669,1.251a201.16,201.16,0,0,0-27.439,4.715c-24.815,6.168-47.826,17.785-70.592,29.1C341.4,338.8,273.807,370.851,216.844,416.676a498.186,498.186,0,0,0-45.037,41.062c-19.69,20.2-37.9,42.222-55.692,64.637C91.379,553.55,67.245,585.523,43.34,617.3" transform="translate(13.449 49.564)" fill="none" stroke="#fdf100" stroke-miterlimit="10" stroke-width="3"/><path d="M1025.668-47.45c-47.97,7.919-77.1,56.681-98.984,99.548-13.937,27.04-28.173,54.329-44.058,80.688-26.135,43.34-56.511,84.083-97.765,114.049-13.608,9.877-28.5,18.509-44.793,22.309-18.86,4.385-38.316,2.086-57.427.261-36.188-3.448-72.556-5.167-109.031-7.073-21.579-1.118-43.484-2.278-65.079-.341a185.262,185.262,0,0,0-27.5,4.449c-24.847,6.077-47.768,18.057-70.4,29.8-66.255,34.463-133.394,68.65-189.453,116.955a535.539,535.539,0,0,0-44.17,42.962c-19.265,20.856-37.2,43.164-54.909,65.633-24.671,31.308-49.04,63.02-73.3,94.631" transform="translate(10.89 54.102)" fill="none" stroke="#fdf100" stroke-miterlimit="10" stroke-width="3"/><path d="M1025.67-57.15c-48.7,6.844-77.229,57.022-98.026,101.6-34.671,74.291-71.236,152.344-137.678,200.373-13.64,9.856-28.641,18.376-45.117,21.819-19.084,3.97-38.848.9-58.145-1.66-36.6-4.859-73.439-7.871-110.218-10.883-31.073-2.544-62.8-5.04-93.093,2.256-24.879,5.987-47.7,18.317-70.193,30.52-65.941,35.757-132.628,72.056-187.814,122.868-36.353,33.468-66.979,72.572-97.424,111.484L54.15,615.561" transform="translate(8.392 58.64)" fill="none" stroke="#fdf100" stroke-miterlimit="10" stroke-width="3"/><path d="M48.67,614.239c24.48-31.808,49.492-63.328,74.892-94.109,31.4-38.029,63.174-75.036,100.389-106.9,11.458-9.824,23.362-19.1,35.608-28,48.129-34.921,101.448-63.823,154.356-92.342,22.628-12.2,45.564-24.48,70.491-30.674,30.334-7.5,62.025-5.529,93.183-3.225,7.919.58,15.864,1.176,23.7,1.565,4.5.218,8.946.388,13.368.559,23.857.91,47.193,1.932,70.348,3.693,18.44,1.426,37.252,3.315,55.527-1.469,11.346-2.975,22.027-8.435,32.127-15.044,3.965-2.592,7.839-5.359,11.623-8.222,32.553-24.592,58.991-55.649,81.71-89.272,22.915-33.878,42.121-70.459,60.816-106.37q2.581-4.939,5.279-9.962c21.707-40.195,50.5-82.348,94.726-90.256" transform="translate(10.955 58.004)" fill="none" stroke="#fdf100" stroke-miterlimit="10" stroke-width="3"/><path d="M43.19,612.917c24.331-32.17,49.769-63.818,75.973-93.875,32.308-37.146,65.271-72.013,103.353-102.32,11.708-9.34,23.852-18.184,36.3-26.736,48.96-33.585,102.549-62.551,155.75-91.065,22.761-12.2,45.825-24.48,70.779-30.829,30.334-7.706,62.03-6.264,93.279-4.2,7.951.532,15.965,1.064,23.761,1.176,4.47.064,8.839,0,13.161-.043,23.336-.314,45.644-.681,67.692-.378,17.562.287,35.395,1,52.908-4.593,10.862-3.486,21.148-9.318,30.994-16.21,3.869-2.709,7.663-5.577,11.383-8.515,32.015-25.262,59.215-56.006,82.912-88.6,23.948-32.856,44.479-67.783,64.472-102.326,1.836-3.166,3.725-6.386,5.63-9.579,23.043-38.71,52.866-79.756,96.392-89.25" transform="translate(13.519 57.363)" fill="none" stroke="#fdf100" stroke-miterlimit="10" stroke-width="3"/><path d="M37.71,611.59a1168.59,1168.59,0,0,1,77.058-93.662c33.255-36.246,67.367-68.991,106.312-97.723,11.974-8.85,24.347-17.269,37-25.475,49.763-32.244,103.656-61.274,157.177-89.788,22.883-12.2,46.075-24.48,71.093-30.983,30.371-7.908,62.035-6.993,93.369-5.167,7.983.458,16.066.953,23.82.788,4.449-.09,8.733-.367,12.964-.644,22.8-1.538,44.09-3.347,65.037-4.454,16.673-.889,33.527-1.32,50.285-7.716,10.377-4,20.276-10.2,29.865-17.381,3.762-2.826,7.482-5.785,11.144-8.807,31.473-25.927,59.428-56.357,84.11-87.92,24.975-31.824,46.831-65.1,68.118-98.271q2.938-4.566,5.982-9.212c24.389-37.22,55.239-77.165,98.042-88.245" transform="translate(16.083 56.731)" fill="none" stroke="#fdf100" stroke-miterlimit="10" stroke-width="3"/><path d="M32.23,610.3c24.059-32.9,50.327-64.754,78.139-93.422,34.16-35.373,69.47-65.989,109.276-93.13,12.24-8.366,24.836-16.348,37.7-24.214,50.556-30.908,104.758-60,158.587-88.511,23.032-12.192,46.331-24.437,71.4-31.137,30.4-8.158,62.051-7.743,93.476-6.163a229.088,229.088,0,0,0,23.873.4c4.428-.25,8.632-.745,12.772-1.251,22.282-2.762,42.536-5.971,62.381-8.515,15.79-2.038,31.717-3.64,47.667-10.84,9.893-4.513,19.4-11.09,28.737-18.551,3.667-2.938,7.307-5.992,10.9-9.095,30.93-26.609,59.646-56.713,85.318-87.244,26-30.8,49.183-62.418,71.774-94.194q3.108-4.385,6.333-8.845c25.725-35.73,57.607-74.557,99.686-87.233" transform="translate(18.646 56.062)" fill="none" stroke="#fdf100" stroke-miterlimit="10" stroke-width="3"/><path d="M26.75,608.95c23.948-33.266,50.609-65.217,79.219-93.188A652.232,652.232,0,0,1,218.209,427.2c12.49-7.876,25.331-15.433,38.4-22.953,51.4-29.567,105.859-58.72,160.024-87.228,23.16-12.2,46.581-24.416,71.694-31.3,30.414-8.318,62.051-8.456,93.556-7.11,8.063.335,16.268.729,23.948,0,4.4-.41,8.515-1.128,12.554-1.857,21.755-3.986,40.977-8.595,59.731-12.6,14.9-3.193,29.892-5.923,45.043-13.969,9.419-5,18.52-11.969,27.6-19.717,3.566-3.049,7.126-6.2,10.643-9.387a1184.228,1184.228,0,0,0,86.515-86.563c27.024-29.8,51.535-59.741,75.424-90.176,2.193-2.789,4.422-5.62,6.684-8.467C957.091,1.636,990-36.084,1031.36-50.33" transform="translate(21.21 55.449)" fill="none" stroke="#fdf100" stroke-miterlimit="10" stroke-width="3"/><path d="M21.27,607.613c23.788-33.633,50.891-65.681,80.3-92.96,36.017-33.612,73.663-59.992,115.2-83.987,12.772-7.392,25.821-14.507,39.093-21.691,52.222-28.232,106.966-57.443,161.445-85.951,23.3-12.192,46.831-24.389,72-31.451,30.43-8.515,62.056-9.185,93.662-8.078,8.1.271,16.37.617,24-.373a114.315,114.315,0,0,0,12.357-2.459c21.228-5.21,39.418-11.223,57.07-16.673,13.991-4.332,28.04-8.238,42.409-17.1,8.94-5.513,17.647-12.857,26.475-20.888,3.47-3.161,6.918-6.386,10.431-9.68,29.844-27.928,60.071-57.416,87.712-85.887,28.051-28.737,53.893-57.054,79.081-86.121q3.464-4,7.03-8.094C957.938,3.467,991.875-33.141,1032.511-49" transform="translate(23.774 54.827)" fill="none" stroke="#fdf100" stroke-miterlimit="10" stroke-width="3"/><path d="M15.79,606.281c23.655-33.99,51.174-66.143,81.385-92.731,36.949-32.718,75.765-56.985,118.142-79.4,13.012-6.918,26.316-13.592,39.785-20.43C308.17,386.83,363.2,357.555,418,329.047c23.415-12.192,47.092-24.368,72.3-31.606,30.451-8.728,62.062-9.92,93.742-9.047,8.132.213,16.5.532,24.054-.761a91.875,91.875,0,0,0,12.149-3.06c20.7-6.434,37.859-13.836,54.414-20.755,13.118-5.471,26.231-10.553,39.8-20.222,8.461-6.024,16.769-13.741,25.342-22.059,3.374-3.278,6.769-6.615,10.191-9.968,29.307-28.6,60.29-57.772,88.92-85.211,29.072-27.721,56.24-54.377,82.726-82.077l7.387-7.716C958.77,5.3,993.733-30.211,1033.651-47.65" transform="translate(26.337 54.196)" fill="none" stroke="#fdf100" stroke-miterlimit="10" stroke-width="3"/><path d="M10.31,604.968c23.517-34.357,51.45-66.612,82.486-92.5,37.875-31.834,77.867-53.978,121.127-74.818,13.246-6.418,26.784-12.671,40.488-19.19,53.834-25.544,109.148-54.867,164.27-83.375,23.565-12.187,47.363-24.341,72.6-31.76,30.467-8.93,62.067-10.643,93.832-10.021,8.174.149,16.572.394,24.113-1.149a77.388,77.388,0,0,0,11.947-3.661c20.18-7.663,36.3-16.46,51.764-24.82,12.24-6.61,24.4-12.873,37.177-23.346C718.1,233.79,726,225.7,734.328,217.1c3.268-3.39,6.588-6.828,9.952-10.26,28.737-29.269,60.508-58.124,90.118-84.535,30.1-26.694,58.6-51.7,86.377-78.022q3.832-3.624,7.738-7.344c31.089-29.8,67.086-64.18,106.28-83.21" transform="translate(28.901 53.55)" fill="none" stroke="#fdf100" stroke-miterlimit="10" stroke-width="3"/><path d="M4.84,603.641c23.378-34.719,51.727-67.053,83.551-92.268,38.8-30.951,79.959-50.977,124.086-70.247,13.528-5.934,27.3-11.75,41.179-17.913,54.675-24.2,110.271-53.611,165.718-82.1,23.7-12.187,47.6-24.32,72.907-31.93,30.493-9.132,62.078-11.378,93.933-10.989,8.206.085,16.668.277,24.166-1.538a66.961,66.961,0,0,0,11.75-4.257c19.648-8.882,34.735-19.073,49.1-28.892,11.33-7.748,22.564-15.188,34.559-26.47,7.5-7.046,15.013-15.507,23.08-24.395,3.193-3.5,6.413-7.035,9.712-10.548,28.205-29.935,60.726-58.48,91.32-83.859,31.132-25.667,60.95-49.018,90.033-73.972q4.007-3.443,8.084-6.977c32.415-28.29,69.443-61.577,107.914-82.194" transform="translate(31.46 52.914)" fill="none" stroke="#fdf100" stroke-miterlimit="10" stroke-width="3"/><path d="M-.64,602.31c23.24-35.086,52.009-67.543,84.615-92.039,39.721-30.062,82.071-47.975,127.061-65.654,13.789-5.444,27.79-10.835,41.877-16.652,55.5-22.883,111.383-52.323,167.144-80.837,23.831-12.181,47.853-24.294,73.195-32.069,30.509-9.34,62.083-12.112,94.024-11.963,8.243,0,16.774.17,24.23-1.921a59.072,59.072,0,0,0,11.543-4.869c19.126-10.111,33.175-21.686,46.448-32.995,10.441-8.882,20.755-17.508,31.93-29.594,7.014-7.562,14.14-16.391,21.947-25.544,3.076-3.619,6.237-7.248,9.478-10.846,27.673-30.6,60.939-58.831,92.518-83.184C857.528,89.51,888.7,67.813,919.031,44.222q4.193-3.241,8.44-6.6c33.772-26.811,71.843-58.986,109.574-81.193" transform="translate(34.024 52.287)" fill="none" stroke="#fdf100" stroke-miterlimit="10" stroke-width="3"/><path d="M-6.12,601.01c23.107-35.448,52.286-68,85.706-91.81,40.663-29.174,84.163-44.963,130.015-61.067,14.044-4.96,28.285-9.914,42.574-15.39,56.32-21.532,112.485-51.046,168.57-79.56,23.948-12.181,48.108-24.272,73.493-32.223,30.531-9.542,62.094-12.841,94.114-12.932,8.281-.037,16.875.053,24.288-2.315a52.627,52.627,0,0,0,11.346-5.471c18.594-11.335,31.611-24.288,43.792-37.039,9.579-10.01,18.9-19.829,29.317-32.718,6.53-8.078,13.262-17.28,20.819-26.731,2.975-3.725,6.056-7.45,9.233-11.133,27.141-31.27,61.157-59.188,93.726-82.486,33.181-23.612,65.654-43.638,97.334-65.872q4.369-3.06,8.786-6.226c35.123-25.326,74.2-56.41,111.224-80.187" transform="translate(36.588 51.623)" fill="none" stroke="#fdf100" stroke-miterlimit="10" stroke-width="3"/><path d="M-11.6,599.669c22.974-35.815,52.568-68.469,86.786-91.581,41.594-28.29,86.265-41.962,132.979-56.485,14.3-4.47,28.774-8.994,43.271-14.129,57.118-20.2,113.587-49.769,169.991-78.277,24.1-12.165,48.374-24.251,73.8-32.388,30.552-9.744,62.1-13.576,94.194-13.906,8.313-.1,16.976-.053,24.347-2.7a47.576,47.576,0,0,0,11.138-6.077c18.094-12.554,30.062-26.885,41.137-41.11,8.669-11.138,17.061-22.149,26.7-35.847,6.045-8.589,12.384-18.158,19.69-27.9q4.311-5.774,9-11.426c26.608-31.93,61.37-59.539,94.923-81.832,34.218-22.575,68.011-40.966,101.006-61.79q4.55-2.874,9.143-5.854c36.438-23.857,76.537-53.818,112.857-79.2" transform="translate(39.151 51.005)" fill="none" stroke="#fdf100" stroke-miterlimit="10" stroke-width="3"/><path d="M-17.08,598.333C5.755,562.146,35.77,529.4,70.792,506.981c42.515-27.407,88.34-38.955,135.938-51.9C221.3,451.092,236,447,250.7,442.21c57.953-18.855,114.693-48.491,171.418-76.994,24.23-12.181,48.614-24.224,74.094-32.537,30.568-9.952,62.1-14.3,94.3-14.9,8.355-.16,17.077-.165,24.405-3.087a44.656,44.656,0,0,0,10.936-6.679c17.562-13.783,28.514-29.488,38.487-45.187,7.786-12.267,15.22-24.48,24.075-38.971,5.561-9.105,11.506-19.046,18.552-29.067,2.778-3.959,5.7-7.876,8.759-11.708,26.076-32.606,61.588-59.9,96.126-81.156,35.235-21.558,70.364-38.29,104.641-57.772q4.726-2.661,9.489-5.476c37.784-22.351,78.932-51.205,114.513-78.176" transform="translate(41.715 50.383)" fill="none" stroke="#fdf100" stroke-miterlimit="10" stroke-width="3"/><path d="M-22.56,597.02c22.7-36.539,53.132-69.374,88.952-91.124,43.446-26.518,90.469-35.948,138.9-47.315,14.821-3.5,29.759-7.158,44.665-11.607,58.794-17.514,115.8-47.214,172.844-75.723,24.363-12.176,48.869-24.2,74.4-32.691,30.589-10.154,62.11-15.039,94.4-15.843,8.387-.224,17.173-.282,24.48-3.475a41.9,41.9,0,0,0,10.739-7.285c17.029-15.007,26.965-32.09,35.826-49.258,6.918-13.389,13.384-26.795,21.457-42.095,5.077-9.622,10.643-19.93,17.423-30.238q4.013-6.109,8.515-12.006c25.544-33.271,61.806-60.247,97.329-80.48,36.262-20.526,72.716-35.608,108.286-53.717q4.906-2.5,9.84-5.109c39.136-20.861,81.305-48.6,116.162-77.165" transform="translate(44.279 49.733)" fill="none" stroke="#fdf100" stroke-miterlimit="10" stroke-width="3"/><path d="M-28,595.7c22.564-36.906,53.409-69.869,90.033-90.895,44.378-25.635,92.56-32.941,141.866-42.733,15.082-3.012,30.254-6.237,45.357-10.345,59.6-16.178,116.9-45.937,174.27-74.445,24.48-12.176,49.125-24.177,74.7-32.846a325.865,325.865,0,0,1,94.487-16.817c8.424-.282,17.28-.388,24.522-3.858a39.958,39.958,0,0,0,10.532-7.887c16.5-16.231,25.427-34.692,33.17-53.334,6.035-14.518,11.548-29.115,18.839-45.234a275.258,275.258,0,0,1,16.29-31.4q3.874-6.274,8.286-12.293c24.975-33.942,62.019-60.6,98.526-79.826,37.289-19.5,75.073-32.931,111.942-49.673q5.088-2.3,10.191-4.731c40.45-19.323,83.663-45.98,117.785-76.132" transform="translate(46.824 49.096)" fill="none" stroke="#fdf100" stroke-miterlimit="10" stroke-width="3"/><path d="M-33.52,594.371C-11.089,557.119,20.171,524.039,57.6,503.7c45.3-24.751,94.652-29.94,144.825-38.151,15.342-2.528,30.743-5.322,46.054-9.09,60.417-14.826,118-44.628,175.691-73.163,24.634-12.176,49.38-24.155,75-32.995a328.3,328.3,0,0,1,94.577-17.764c8.462-.346,17.381-.532,24.581-4.257a37.36,37.36,0,0,0,10.329-8.515c15.965-17.455,23.889-37.295,30.52-57.405,5.157-15.646,9.67-31.446,16.215-48.348a226.3,226.3,0,0,1,15.161-32.574c2.475-4.295,5.167-8.515,8.041-12.586,24.432-34.591,62.264-60.955,99.729-79.128,38.316-18.472,77.426-30.249,115.593-45.618q5.268-2.129,10.542-4.358C966.269,21.867,1010.5-3.661,1043.913-35.4" transform="translate(49.406 48.465)" fill="none" stroke="#fdf100" stroke-miterlimit="10" stroke-width="3"/><path d="M-39,593.062c22.293-37.635,53.973-70.779,92.2-90.437,46.23-23.863,96.754-26.933,147.81-33.564,15.6-2.038,31.238-4.4,46.751-7.828,61.237-13.491,119.11-43.377,177.117-71.886,24.762-12.171,49.63-24.129,75.3-33.154a330.305,330.305,0,0,1,94.641-18.738c8.515-.4,17.477-.612,24.64-4.635a36.814,36.814,0,0,0,10.111-9.095c15.433-18.679,22.351-39.913,27.859-61.476,4.257-16.779,7.839-33.766,13.6-51.472a196.935,196.935,0,0,1,14.028-33.745,150.42,150.42,0,0,1,7.807-12.873c23.889-35.278,62.45-61.311,100.931-78.453,39.338-17.45,79.778-27.566,119.238-41.568q5.449-1.932,10.893-3.986C967.106,23.73,1012.362-.686,1045.031-34" transform="translate(51.97 47.81)" fill="none" stroke="#fdf100" stroke-miterlimit="10" stroke-width="3"/><path d="M-44.48,591.72c22.16-37.992,54.255-71.258,93.279-90.2,47.161-22.979,98.856-23.948,150.753-28.982,15.859-1.554,31.728-3.48,47.448-6.567,62.056-12.155,120.212-42.095,178.538-70.608,24.9-12.171,49.886-24.107,75.568-33.309,30.669-10.973,62.142-17.961,94.769-19.728,8.515-.468,17.562-.729,24.7-5.024,4.082-2.464,7.179-6.04,9.925-9.7,14.9-19.9,20.856-42.5,25.2-65.553,3.448-17.907,6-36.081,10.979-54.6a179.463,179.463,0,0,1,12.894-34.91,141.527,141.527,0,0,1,7.568-13.171c23.352-35.943,62.668-61.663,102.134-77.777,40.365-16.417,82.13-24.884,122.894-37.518q5.625-1.74,11.245-3.608c44.548-14.917,90.8-38.226,122.777-73.142" transform="translate(54.534 47.188)" fill="none" stroke="#fdf100" stroke-miterlimit="10" stroke-width="3"/><path d="M-49.95,590.4c22.016-38.359,54.526-71.726,94.359-89.974,48.087-22.1,100.953-20.925,153.712-24.395a459.378,459.378,0,0,0,48.145-5.322c62.871-10.814,121.335-40.818,179.964-69.326,25.012-12.171,50.136-24.086,75.893-33.468,30.69-11.176,62.147-18.7,94.865-20.7,8.568-.532,17.679-.841,24.751-5.412,4.06-2.624,7.078-6.423,9.728-10.3,14.369-21.127,19.3-45.112,22.548-69.624,2.565-19.041,4.162-38.4,8.355-57.725a166.366,166.366,0,0,1,11.766-36.076,131.453,131.453,0,0,1,7.328-13.464c22.809-36.608,62.881-62.014,103.332-77.1,41.392-15.4,84.487-22.207,126.545-33.468q5.811-1.554,11.6-3.241c45.836-13.416,93.151-35.613,124.422-72.12" transform="translate(57.093 46.551)" fill="none" stroke="#fdf100" stroke-miterlimit="10" stroke-width="3"/><path d="M-55.43,589.085c21.883-38.721,54.814-72.189,95.439-89.74,49.008-21.212,103.05-17.892,156.676-19.813a438.05,438.05,0,0,0,48.843-4.05c63.69-9.478,122.4-39.54,181.385-68.049,25.166-12.171,50.4-24.059,76.2-33.623,30.706-11.378,62.152-19.424,94.955-21.67,8.605-.591,17.785-.953,24.815-5.8,4.034-2.783,6.971-6.8,9.521-10.9,13.836-22.351,17.758-47.73,19.893-73.7,1.682-20.18,2.326-40.716,5.737-60.848a156.087,156.087,0,0,1,10.643-37.252,123.262,123.262,0,0,1,7.078-13.73c22.271-37.279,63.1-62.37,104.534-76.42,42.425-14.369,86.84-19.525,130.2-29.418q5.982-1.368,11.947-2.868c47.172-11.937,95.519-33.032,126.045-71.125" transform="translate(59.656 45.901)" fill="none" stroke="#fdf100" stroke-miterlimit="10" stroke-width="3"/><path d="M-60.91,587.735c21.771-39.088,55.09-72.652,96.52-89.516,65.2-26.529,139.349-9.207,209.18-18.014C369.568,464.468,473.746,366.485,599.141,357c8.643-.655,17.886-1.064,24.874-6.189,4.013-2.938,6.87-7.174,9.318-11.506C663.576,285.85,640,216.019,663.188,159.146c18.738-45.958,65.148-75.222,112.591-89.788S873.406,51.951,921.924,41.5s97.888-30.435,127.721-70.119" transform="translate(62.22 45.293)" fill="none" stroke="#fdf100" stroke-miterlimit="10" stroke-width="3"/></g></svg>