<svg xmlns="http://www.w3.org/2000/svg" xmlns:xlink="http://www.w3.org/1999/xlink" width="256" height="256" viewBox="0 0 256 256"><defs><filter id="a" x="0" y="0" width="256" height="256" filterUnits="userSpaceOnUse"><feOffset dx="5" dy="5" input="SourceAlpha"/><feGaussianBlur stdDeviation="3.5" result="b"/><feFlood flood-opacity="0.4"/><feComposite operator="in" in2="b"/><feComposite in="SourceGraphic"/></filter><filter id="c"><feOffset dx="3" dy="3" input="SourceAlpha"/><feGaussianBlur stdDeviation="3.5" result="d"/><feFlood flood-opacity="0.4" result="e"/><feComposite operator="out" in="SourceGraphic" in2="d"/><feComposite operator="in" in="e"/><feComposite operator="in" in2="SourceGraphic"/></filter><filter id="f" x="91.5" y="175.5" width="65" height="31" filterUnits="userSpaceOnUse"><feOffset dx="1" dy="1" input="SourceAlpha"/><feGaussianBlur stdDeviation="0.5" result="g"/><feFlood flood-opacity="0.161" result="h"/><feComposite operator="out" in="SourceGraphic" in2="g"/><feComposite operator="in" in="h"/><feComposite operator="in" in2="SourceGraphic"/></filter></defs><g transform="translate(-573.5 -1623.5)"><g transform="matrix(1, 0, 0, 1, 573.5, 1623.5)" filter="url(#a)"><rect width="235" height="235" rx="12" transform="translate(5.5 5.5)" fill="#ff5757"/></g><g transform="translate(-270 43)"><g data-type="innerShadowGroup"><path d="M88.564,88.608l-18.7-21.184h7.171A5.319,5.319,0,0,0,81.9,64.367a5.161,5.161,0,0,0-.768-5.63L62.838,37.458H69.6a5.3,5.3,0,0,0,4.883-3.186,5.209,5.209,0,0,0-.993-5.637L47.677,1.132a3.856,3.856,0,0,0-5.459,0L16.4,28.635a5.213,5.213,0,0,0-.993,5.637,5.308,5.308,0,0,0,4.886,3.186h6.763L8.764,58.741A5.168,5.168,0,0,0,8,64.369a5.319,5.319,0,0,0,4.865,3.055h7.171L1.331,88.608A5.175,5.175,0,0,0,.5,94.288a5.429,5.429,0,0,0,4.919,3.1h32.04v5.724l-7.091,11.331a3.747,3.747,0,0,0,3.35,5.422H56.18a3.747,3.747,0,0,0,3.35-5.422l-7.091-11.331V97.39h32.04a5.429,5.429,0,0,0,4.919-3.1A5.175,5.175,0,0,0,88.564,88.608Z" transform="translate(922.105 1621)" fill="#e6e6e6"/><g transform="matrix(1, 0, 0, 1, 843.5, 1580.5)" filter="url(#c)"><path d="M88.564,88.608l-18.7-21.184h7.171A5.319,5.319,0,0,0,81.9,64.367a5.161,5.161,0,0,0-.768-5.63L62.838,37.458H69.6a5.3,5.3,0,0,0,4.883-3.186,5.209,5.209,0,0,0-.993-5.637L47.677,1.132a3.856,3.856,0,0,0-5.459,0L16.4,28.635a5.213,5.213,0,0,0-.993,5.637,5.308,5.308,0,0,0,4.886,3.186h6.763L8.764,58.741A5.168,5.168,0,0,0,8,64.369a5.319,5.319,0,0,0,4.865,3.055h7.171L1.331,88.608A5.175,5.175,0,0,0,.5,94.288a5.429,5.429,0,0,0,4.919,3.1h32.04v5.724l-7.091,11.331a3.747,3.747,0,0,0,3.35,5.422H56.18a3.747,3.747,0,0,0,3.35-5.422l-7.091-11.331V97.39h32.04a5.429,5.429,0,0,0,4.919-3.1A5.175,5.175,0,0,0,88.564,88.608Z" transform="translate(78.6 40.5)" fill="#fff"/></g></g><g data-type="innerShadowGroup"><text transform="translate(935 1780)" fill="#e6e6e6" font-size="24" font-family="FreeSansBoldOblique, FreeSans BoldOblique"><tspan x="0" y="0">TYPE</tspan></text><g transform="matrix(1, 0, 0, 1, 843.5, 1580.5)" filter="url(#f)"><text transform="translate(91.5 199.5)" fill="#fff" font-size="24" font-family="FreeSansBoldOblique, FreeSans BoldOblique"><tspan x="0" y="0">TYPE</tspan></text></g></g></g></g></svg>